<svg viewBox="0 0 1200 900" xmlns="http://www.w3.org/2000/svg">
  <!-- Background -->
  <rect width="1200" height="900" fill="#f5f7fb" />
  
  <!-- Header -->
  <rect x="0" y="0" width="1200" height="60" fill="#2c3e50" />
  <text x="30" y="38" font-family="Arial" font-size="24" font-weight="bold" fill="white">I-Con Web Monitor</text>
  
  <!-- Search box -->
  <rect x="800" y="15" width="240" height="30" rx="4" fill="white" />
  <text x="820" y="35" font-family="Arial" font-size="14" fill="#95a5a6">Search interfaces, servers...</text>
  <circle cx="1080" cy="30" r="10" fill="#ecf0f1" />
  <path d="M1084 30 L1088 34" stroke="#7f8c8d" stroke-width="2" stroke-linecap="round" />
  <path d="M1080 27 L1080 33" stroke="#7f8c8d" stroke-width="2" stroke-linecap="round" />
  
  <!-- User menu -->
  <circle cx="1140" cy="30" r="15" fill="#3498db" />
  <text x="1136" y="35" font-family="Arial" font-size="14" font-weight="bold" fill="white">A</text>
  
  <!-- Left Sidebar -->
  <rect x="0" y="60" width="220" height="840" fill="#34495e" />
  
  <!-- Navigation Menu -->
  <rect x="0" y="110" width="220" height="40" fill="#2c3e50" />
  <text x="50" y="135" font-family="Arial" font-size="14" fill="white">Dashboard</text>
  <circle cx="25" cy="130" r="8" fill="#3498db" />
  
  <rect x="0" y="150" width="220" height="40" fill="#34495e" />
  <text x="50" y="175" font-family="Arial" font-size="14" fill="white">Servers</text>
  <rect x="17" y="167" width="16" height="16" fill="#ecf0f1" />
  
  <rect x="0" y="190" width="220" height="40" fill="#34495e" />
  <text x="50" y="215" font-family="Arial" font-size="14" fill="white">Interfaces</text>
  <rect x="17" y="207" width="16" height="6" fill="#ecf0f1" />
  <rect x="17" y="217" width="16" height="6" fill="#ecf0f1" />
  
  <rect x="0" y="230" width="220" height="40" fill="#34495e" />
  <text x="50" y="255" font-family="Arial" font-size="14" fill="white">Logs &amp; Errors</text>
  <rect x="17" y="247" width="16" height="2" fill="#ecf0f1" />
  <rect x="17" y="252" width="16" height="2" fill="#ecf0f1" />
  <rect x="17" y="257" width="16" height="2" fill="#ecf0f1" />
  
  <rect x="0" y="270" width="220" height="40" fill="#34495e" />
  <text x="50" y="295" font-family="Arial" font-size="14" fill="white">Reports</text>
  <rect x="17" y="287" width="16" height="16" rx="2" fill="#ecf0f1" />
  <path d="M21 290 L29 290 M21 294 L29 294 M21 298 L25 298" stroke="#34495e" stroke-width="1" />
  
  <rect x="0" y="310" width="220" height="40" fill="#34495e" />
  <text x="50" y="335" font-family="Arial" font-size="14" fill="white">Settings</text>
  <circle cx="25" cy="330" r="8" fill="#ecf0f1" />
  <path d="M25 326 L25 334" stroke="#34495e" stroke-width="1.5" />
  <path d="M21 330 L29 330" stroke="#34495e" stroke-width="1.5" />
  
  <!-- Main Content Area -->
  <rect x="220" y="60" width="980" height="840" fill="#ecf0f1" />
  
  <!-- Dashboard Title -->
  <text x="250" y="100" font-family="Arial" font-size="22" font-weight="bold" fill="#2c3e50">Dashboard Overview</text>
  
  <!-- Stats Overview Cards -->
  <rect x="250" y="120" width="220" height="120" rx="5" fill="white" stroke="#dfe4ea" />
  <text x="270" y="150" font-family="Arial" font-size="14" fill="#95a5a6">Servers</text>
  <text x="270" y="185" font-family="Arial" font-size="28" font-weight="bold" fill="#2c3e50">12</text>
  <circle cx="420" cy="170" r="20" fill="#e8f4fc" />
  <path d="M415 170 L425 170 M420 165 L420 175" stroke="#3498db" stroke-width="2" />
  
  <rect x="490" y="120" width="220" height="120" rx="5" fill="white" stroke="#dfe4ea" />
  <text x="510" y="150" font-family="Arial" font-size="14" fill="#95a5a6">Interfaces</text>
  <text x="510" y="185" font-family="Arial" font-size="28" font-weight="bold" fill="#2c3e50">134</text>
  <circle cx="660" cy="170" r="20" fill="#e8f4fc" />
  <rect x="652" y="163" width="16" height="7" fill="#3498db" />
  <rect x="652" y="173" width="16" height="7" fill="#3498db" />
  
  <rect x="730" y="120" width="220" height="120" rx="5" fill="white" stroke="#dfe4ea" />
  <text x="750" y="150" font-family="Arial" font-size="14" fill="#95a5a6">Active Issues</text>
  <text x="750" y="185" font-family="Arial" font-size="28" font-weight="bold" fill="#e74c3c">7</text>
  <circle cx="900" cy="170" r="20" fill="#fceae8" />
  <text x="895" y="175" font-family="Arial" font-size="16" font-weight="bold" fill="#e74c3c">!</text>
  
  <rect x="970" y="120" width="220" height="120" rx="5" fill="white" stroke="#dfe4ea" />
  <text x="990" y="150" font-family="Arial" font-size="14" fill="#95a5a6">Message Rate</text>
  <text x="990" y="185" font-family="Arial" font-size="28" font-weight="bold" fill="#2c3e50">243/min</text>
  <circle cx="1140" cy="170" r="20" fill="#e8f4fc" />
  <path d="M1132 170 L1148 170 M1140 162 L1140 178" stroke="#3498db" stroke-width="2" />
  
  <!-- Server Status Section -->
  <text x="250" y="280" font-family="Arial" font-size="18" font-weight="bold" fill="#2c3e50">Server Status</text>
  
  <!-- Server Status Chart -->
  <rect x="250" y="300" width="460" height="250" rx="5" fill="white" stroke="#dfe4ea" />
  
  <!-- Chart Title -->
  <text x="270" y="330" font-family="Arial" font-size="16" font-weight="bold" fill="#2c3e50">CPU Usage (%)</text>
  
  <!-- Chart Legend -->
  <circle cx="280" cy="350" r="5" fill="#3498db" />
  <text x="290" y="355" font-family="Arial" font-size="12" fill="#7f8c8d">Production</text>
  <circle cx="380" cy="350" r="5" fill="#2ecc71" />
  <text x="390" y="355" font-family="Arial" font-size="12" fill="#7f8c8d">Staging</text>
  
  <!-- Chart Grid -->
  <path d="M270 380 L670 380 M270 430 L670 430 M270 480 L670 480" stroke="#ecf0f1" stroke-width="1" />
  
  <!-- Chart X-Axis -->
  <path d="M270 520 L670 520" stroke="#95a5a6" stroke-width="1" />
  <text x="270" y="540" font-family="Arial" font-size="10" fill="#7f8c8d">00:00</text>
  <text x="370" y="540" font-family="Arial" font-size="10" fill="#7f8c8d">06:00</text>
  <text x="470" y="540" font-family="Arial" font-size="10" fill="#7f8c8d">12:00</text>
  <text x="570" y="540" font-family="Arial" font-size="10" fill="#7f8c8d">18:00</text>
  <text x="670" y="540" font-family="Arial" font-size="10" fill="#7f8c8d">24:00</text>
  
  <!-- Chart Y-Axis -->
  <path d="M270 380 L270 520" stroke="#95a5a6" stroke-width="1" />
  <text x="250" y="380" font-family="Arial" font-size="10" fill="#7f8c8d">80</text>
  <text x="250" y="430" font-family="Arial" font-size="10" fill="#7f8c8d">50</text>
  <text x="250" y="480" font-family="Arial" font-size="10" fill="#7f8c8d">20</text>
  <text x="250" y="520" font-family="Arial" font-size="10" fill="#7f8c8d">0</text>
  
  <!-- Chart Data -->
  <path d="M270 470 L310 450 L350 480 L390 420 L430 440 L470 390 L510 420 L550 450 L590 410 L630 430 L670 400" stroke="#3498db" stroke-width="2" fill="none" />
  <path d="M270 490 L310 500 L350 480 L390 470 L430 490 L470 500 L510 480 L550 490 L590 470 L630 490 L670 480" stroke="#2ecc71" stroke-width="2" fill="none" />
  
  <!-- Memory Usage Chart -->
  <rect x="730" y="300" width="460" height="250" rx="5" fill="white" stroke="#dfe4ea" />
  
  <!-- Chart Title -->
  <text x="750" y="330" font-family="Arial" font-size="16" font-weight="bold" fill="#2c3e50">Memory Usage (GB)</text>
  
  <!-- Memory Bars -->
  <rect x="770" y="380" width="100" height="30" fill="#3498db" />
  <rect x="770" y="420" width="80" height="30" fill="#3498db" />
  <rect x="770" y="460" width="120" height="30" fill="#3498db" />
  <rect x="770" y="500" width="60" height="30" fill="#3498db" />
  
  <!-- Server Names -->
  <text x="750" y="400" font-family="Arial" font-size="12" fill="#7f8c8d">PROD-01</text>
  <text x="750" y="440" font-family="Arial" font-size="12" fill="#7f8c8d">PROD-02</text>
  <text x="750" y="480" font-family="Arial" font-size="12" fill="#7f8c8d">STAGE-01</text>
  <text x="750" y="520" font-family="Arial" font-size="12" fill="#7f8c8d">DEV-01</text>
  
  <!-- Memory Values -->
  <text x="880" y="400" font-family="Arial" font-size="12" fill="white">10 / 16 GB</text>
  <text x="860" y="440" font-family="Arial" font-size="12" fill="white">8 / 16 GB</text>
  <text x="900" y="480" font-family="Arial" font-size="12" fill="white">12 / 16 GB</text>
  <text x="840" y="520" font-family="Arial" font-size="12" fill="white">6 / 16 GB</text>
  
  <!-- Interfaces Status -->
  <text x="250" y="590" font-family="Arial" font-size="18" font-weight="bold" fill="#2c3e50">Interfaces Status</text>
  
  <!-- Interfaces Table -->
  <rect x="250" y="610" width="940" height="280" rx="5" fill="white" stroke="#dfe4ea" />
  
  <!-- Table Header -->
  <rect x="250" y="610" width="940" height="40" rx="5 5 0 0" fill="#ecf0f1" />
  <text x="270" y="635" font-family="Arial" font-size="14" font-weight="bold" fill="#2c3e50">Interface Name</text>
  <text x="520" y="635" font-family="Arial" font-size="14" font-weight="bold" fill="#2c3e50">Server</text>
  <text x="670" y="635" font-family="Arial" font-size="14" font-weight="bold" fill="#2c3e50">Status</text>
  <text x="820" y="635" font-family="Arial" font-size="14" font-weight="bold" fill="#2c3e50">Message Count</text>
  <text x="970" y="635" font-family="Arial" font-size="14" font-weight="bold" fill="#2c3e50">Last Activity</text>
  <text x="1120" y="635" font-family="Arial" font-size="14" font-weight="bold" fill="#2c3e50">Actions</text>
  
  <!-- Table Rows -->
  <!-- Row 1 -->
  <path d="M250 650 L1190 650" stroke="#ecf0f1" stroke-width="1" />
  <text x="270" y="675" font-family="Arial" font-size="14" fill="#2c3e50">API_Gateway_Interface</text>
  <text x="520" y="675" font-family="Arial" font-size="14" fill="#2c3e50">PROD-01</text>
  <rect x="670" y="660" width="80" height="24" rx="12" fill="#e8f6e9" />
  <text x="685" y="675" font-family="Arial" font-size="12" fill="#27ae60">Running</text>
  <text x="820" y="675" font-family="Arial" font-size="14" fill="#2c3e50">23,412</text>
  <text x="970" y="675" font-family="Arial" font-size="14" fill="#2c3e50">1 min ago</text>
  <circle cx="1120" cy="670" r="10" fill="#ecf0f1" />
  <path d="M1116 670 L1124 670" stroke="#7f8c8d" stroke-width="2" />
  <path d="M1120 666 L1120 674" stroke="#7f8c8d" stroke-width="2" />
  
  <!-- Row 2 -->
  <path d="M250 690 L1190 690" stroke="#ecf0f1" stroke-width="1" />
  <text x="270" y="715" font-family="Arial" font-size="14" fill="#2c3e50">Payment_Processor</text>
  <text x="520" y="715" font-family="Arial" font-size="14" fill="#2c3e50">PROD-02</text>
  <rect x="670" y="700" width="80" height="24" rx="12" fill="#e8f6e9" />
  <text x="685" y="715" font-family="Arial" font-size="12" fill="#27ae60">Running</text>
  <text x="820" y="715" font-family="Arial" font-size="14" fill="#2c3e50">15,709</text>
  <text x="970" y="715" font-family="Arial" font-size="14" fill="#2c3e50">2 mins ago</text>
  <circle cx="1120" cy="710" r="10" fill="#ecf0f1" />
  <path d="M1116 710 L1124 710" stroke="#7f8c8d" stroke-width="2" />
  <path d="M1120 706 L1120 714" stroke="#7f8c8d" stroke-width="2" />
  
  <!-- Row 3 -->
  <path d="M250 730 L1190 730" stroke="#ecf0f1" stroke-width="1" />
  <text x="270" y="755" font-family="Arial" font-size="14" fill="#2c3e50">Order_Processing</text>
  <text x="520" y="755" font-family="Arial" font-size="14" fill="#2c3e50">PROD-01</text>
  <rect x="670" y="740" width="100" height="24" rx="12" fill="#fceae8" />
  <text x="685" y="755" font-family="Arial" font-size="12" fill="#e74c3c">Error (Code 500)</text>
  <text x="820" y="755" font-family="Arial" font-size="14" fill="#2c3e50">8,321</text>
  <text x="970" y="755" font-family="Arial" font-size="14" fill="#e74c3c">17 mins ago</text>
  <circle cx="1120" cy="750" r="10" fill="#ecf0f1" />
  <path d="M1116 750 L1124 750" stroke="#7f8c8d" stroke-width="2" />
  <path d="M1120 746 L1120 754" stroke="#7f8c8d" stroke-width="2" />
  
  <!-- Row 4 -->
  <path d="M250 770 L1190 770" stroke="#ecf0f1" stroke-width="1" />
  <text x="270" y="795" font-family="Arial" font-size="14" fill="#2c3e50">Inventory_Manager</text>
  <text x="520" y="795" font-family="Arial" font-size="14" fill="#2c3e50">STAGE-01</text>
  <rect x="670" y="780" width="80" height="24" rx="12" fill="#fcf3e8" />
  <text x="682" y="795" font-family="Arial" font-size="12" fill="#f39c12">Warning</text>
  <text x="820" y="795" font-family="Arial" font-size="14" fill="#2c3e50">5,183</text>
  <text x="970" y="795" font-family="Arial" font-size="14" fill="#2c3e50">5 mins ago</text>
  <circle cx="1120" cy="790" r="10" fill="#ecf0f1" />
  <path d="M1116 790 L1124 790" stroke="#7f8c8d" stroke-width="2" />
  <path d="M1120 786 L1120 794" stroke="#7f8c8d" stroke-width="2" />
  
  <!-- Row 5 -->
  <path d="M250 810 L1190 810" stroke="#ecf0f1" stroke-width="1" />
  <text x="270" y="835" font-family="Arial" font-size="14" fill="#2c3e50">Customer_Data_Service</text>
  <text x="520" y="835" font-family="Arial" font-size="14" fill="#2c3e50">PROD-01</text>
  <rect x="670" y="820" width="80" height="24" rx="12" fill="#e8f6e9" />
  <text x="685" y="835" font-family="Arial" font-size="12" fill="#27ae60">Running</text>
  <text x="820" y="835" font-family="Arial" font-size="14" fill="#2c3e50">12,775</text>
  <text x="970" y="835" font-family="Arial" font-size="14" fill="#2c3e50">1 min ago</text>
  <circle cx="1120" cy="830" r="10" fill="#ecf0f1" />
  <path d="M1116 830 L1124 830" stroke="#7f8c8d" stroke-width="2" />
  <path d="M1120 826 L1120 834" stroke="#7f8c8d" stroke-width="2" />
  
  <!-- Show more button -->
  <text x="610" y="875" font-family="Arial" font-size="14" fill="#3498db">Show more interfaces</text>
  <path d="M750 875 L760 885 L770 875" stroke="#3498db" stroke-width="2" fill="none" />
</svg>